<svg width="365" height="68" viewBox="0 0 365 68" fill="none" xmlns="http://www.w3.org/2000/svg">
<path d="M10.9 49V45.022L30.361 25.093L33.052 27.199H11.914V21.7H37.693V25.639L18.232 45.607L15.58 43.696H38.122V49H10.9ZM58.5778 49.39C56.1078 49.39 53.9628 48.935 52.1428 48.025C50.3228 47.115 48.9188 45.854 47.9308 44.242C46.9688 42.63 46.4878 40.771 46.4878 38.665C46.4878 36.585 46.9948 34.739 48.0088 33.127C49.0488 31.515 50.4788 30.254 52.2988 29.344C54.1448 28.408 56.2768 27.94 58.6948 27.94C60.1768 27.94 61.5418 28.109 62.7898 28.447C64.0378 28.785 65.1298 29.227 66.0658 29.773C67.0018 30.293 67.7428 30.865 68.2888 31.489C68.8348 32.087 69.1468 32.659 69.2248 33.205L67.7818 33.4V28.369H73.2418V49H67.7038V43.267L68.7958 43.735C68.7438 44.359 68.4318 44.996 67.8598 45.646C67.3138 46.296 66.5728 46.907 65.6368 47.479C64.7268 48.051 63.6608 48.519 62.4388 48.883C61.2168 49.221 59.9298 49.39 58.5778 49.39ZM59.9428 44.593C61.5288 44.593 62.9198 44.346 64.1158 43.852C65.3118 43.332 66.2348 42.63 66.8848 41.746C67.5348 40.836 67.8598 39.809 67.8598 38.665C67.8598 37.521 67.5348 36.507 66.8848 35.623C66.2348 34.739 65.3118 34.037 64.1158 33.517C62.9198 32.997 61.5288 32.737 59.9428 32.737C58.3828 32.737 57.0048 32.997 55.8088 33.517C54.6128 34.037 53.6768 34.739 53.0008 35.623C52.3248 36.507 51.9868 37.521 51.9868 38.665C51.9868 39.809 52.3248 40.836 53.0008 41.746C53.6768 42.63 54.6128 43.332 55.8088 43.852C57.0048 44.346 58.3828 44.593 59.9428 44.593ZM89.464 49V28.369H95.002V49H89.464ZM92.194 23.728C91.128 23.728 90.296 23.468 89.698 22.948C89.1 22.428 88.801 21.687 88.801 20.725C88.801 19.841 89.1 19.126 89.698 18.58C90.322 18.008 91.154 17.722 92.194 17.722C93.26 17.722 94.092 17.995 94.69 18.541C95.288 19.061 95.587 19.789 95.587 20.725C95.587 21.635 95.275 22.363 94.651 22.909C94.053 23.455 93.234 23.728 92.194 23.728ZM111.508 49V20.14H117.046V49H111.508ZM143.949 49.39C141.193 49.39 138.749 48.935 136.617 48.025C134.511 47.115 132.86 45.854 131.664 44.242C130.468 42.604 129.87 40.745 129.87 38.665C129.87 36.559 130.468 34.713 131.664 33.127C132.86 31.515 134.511 30.254 136.617 29.344C138.749 28.408 141.193 27.94 143.949 27.94C146.705 27.94 149.136 28.408 151.242 29.344C153.348 30.254 154.986 31.515 156.156 33.127C157.352 34.713 157.95 36.559 157.95 38.665C157.95 40.745 157.352 42.604 156.156 44.242C154.986 45.854 153.348 47.115 151.242 48.025C149.136 48.935 146.705 49.39 143.949 49.39ZM143.949 44.554C145.509 44.554 146.926 44.307 148.2 43.813C149.5 43.319 150.527 42.63 151.281 41.746C152.035 40.836 152.386 39.809 152.334 38.665C152.386 37.495 152.035 36.468 151.281 35.584C150.527 34.7 149.5 34.011 148.2 33.517C146.926 32.997 145.509 32.737 143.949 32.737C142.389 32.737 140.959 32.997 139.659 33.517C138.359 34.011 137.332 34.7 136.578 35.584C135.824 36.442 135.46 37.469 135.486 38.665C135.46 39.809 135.824 40.836 136.578 41.746C137.332 42.63 138.359 43.319 139.659 43.813C140.959 44.307 142.389 44.554 143.949 44.554ZM170.838 49V28.369H176.181L176.298 33.868L174.699 33.244C175.089 32.698 175.596 32.113 176.22 31.489C176.87 30.865 177.637 30.293 178.521 29.773C179.405 29.253 180.419 28.824 181.563 28.486C182.733 28.148 184.02 27.979 185.424 27.979C186.75 27.979 187.972 28.187 189.09 28.603C190.234 29.019 191.196 29.669 191.976 30.553C192.756 31.437 193.276 32.607 193.536 34.063L191.898 33.829L192.21 33.205C192.652 32.659 193.211 32.087 193.887 31.489C194.563 30.891 195.343 30.332 196.227 29.812C197.137 29.266 198.138 28.824 199.23 28.486C200.348 28.148 201.544 27.979 202.818 27.979C205.106 27.979 206.913 28.395 208.239 29.227C209.591 30.033 210.553 31.112 211.125 32.464C211.697 33.816 211.983 35.285 211.983 36.871V49H206.445V37.651C206.445 36.741 206.276 35.922 205.938 35.194C205.626 34.44 205.119 33.855 204.417 33.439C203.715 32.997 202.792 32.776 201.648 32.776C200.582 32.776 199.594 32.945 198.684 33.283C197.8 33.595 197.007 34.037 196.305 34.609C195.629 35.181 195.096 35.844 194.706 36.598C194.342 37.352 194.16 38.158 194.16 39.016V49H188.622V37.612C188.622 36.676 188.427 35.844 188.037 35.116C187.647 34.388 187.036 33.816 186.204 33.4C185.372 32.984 184.267 32.776 182.889 32.776C181.927 32.776 181.043 32.958 180.237 33.322C179.457 33.66 178.781 34.115 178.209 34.687C177.637 35.259 177.182 35.857 176.844 36.481C176.532 37.105 176.376 37.677 176.376 38.197V49H170.838ZM226.535 49V21.7H232.385V49H226.535ZM228.758 38.548V33.517H248.024V38.548H228.758ZM229.304 26.965V21.7H249.662V26.965H229.304ZM263.204 49V20.14H268.742V49H263.204ZM295.645 49.39C292.889 49.39 290.445 48.935 288.313 48.025C286.207 47.115 284.556 45.854 283.36 44.242C282.164 42.604 281.566 40.745 281.566 38.665C281.566 36.559 282.164 34.713 283.36 33.127C284.556 31.515 286.207 30.254 288.313 29.344C290.445 28.408 292.889 27.94 295.645 27.94C298.401 27.94 300.832 28.408 302.938 29.344C305.044 30.254 306.682 31.515 307.852 33.127C309.048 34.713 309.646 36.559 309.646 38.665C309.646 40.745 309.048 42.604 307.852 44.242C306.682 45.854 305.044 47.115 302.938 48.025C300.832 48.935 298.401 49.39 295.645 49.39ZM295.645 44.554C297.205 44.554 298.622 44.307 299.896 43.813C301.196 43.319 302.223 42.63 302.977 41.746C303.731 40.836 304.082 39.809 304.03 38.665C304.082 37.495 303.731 36.468 302.977 35.584C302.223 34.7 301.196 34.011 299.896 33.517C298.622 32.997 297.205 32.737 295.645 32.737C294.085 32.737 292.655 32.997 291.355 33.517C290.055 34.011 289.028 34.7 288.274 35.584C287.52 36.442 287.156 37.469 287.182 38.665C287.156 39.809 287.52 40.836 288.274 41.746C289.028 42.63 290.055 43.319 291.355 43.813C292.655 44.307 294.085 44.554 295.645 44.554ZM325.166 49L317.483 28.369H323.411L328.091 43.033L327.233 42.955L332.849 31.177H336.983L342.872 42.994L342.17 43.033L347.24 28.369H353.051L344.9 49H340.727L333.707 34.141L336.554 33.829L329.3 49H325.166Z" fill="white"/>
</svg>
