<svg width="346" height="41" viewBox="0 0 346 41" fill="none" xmlns="http://www.w3.org/2000/svg">
<path d="M0 31.278V27.3L19.461 7.371L22.152 9.477H1.014V3.978H26.793V7.917L7.332 27.885L4.68 25.974H27.222V31.278H0Z" fill="url(#paint0_linear_12_10)"/>
<path d="M38.3178 31.668C35.8478 31.668 33.7028 31.213 31.8828 30.303C30.0628 29.393 28.6588 28.132 27.6708 26.52C26.7088 24.908 26.2278 23.049 26.2278 20.943C26.2278 18.863 26.7348 17.017 27.7488 15.405C28.7888 13.793 30.2188 12.532 32.0388 11.622C33.8848 10.686 36.0168 10.218 38.4348 10.218C39.9168 10.218 41.2818 10.387 42.5298 10.725C43.7778 11.063 44.8698 11.505 45.8058 12.051C46.7418 12.571 47.4828 13.143 48.0288 13.767C48.5748 14.365 48.8868 14.937 48.9648 15.483L47.5218 15.678V10.647H52.9818V31.278H47.4438V25.545L48.5358 26.013C48.4838 26.637 48.1718 27.274 47.5998 27.924C47.0538 28.574 46.3128 29.185 45.3768 29.757C44.4668 30.329 43.4008 30.797 42.1788 31.161C40.9568 31.499 39.6698 31.668 38.3178 31.668ZM39.6828 26.871C41.2688 26.871 42.6598 26.624 43.8558 26.13C45.0518 25.61 45.9748 24.908 46.6248 24.024C47.2748 23.114 47.5998 22.087 47.5998 20.943C47.5998 19.799 47.2748 18.785 46.6248 17.901C45.9748 17.017 45.0518 16.315 43.8558 15.795C42.6598 15.275 41.2688 15.015 39.6828 15.015C38.1228 15.015 36.7448 15.275 35.5488 15.795C34.3528 16.315 33.4168 17.017 32.7408 17.901C32.0648 18.785 31.7268 19.799 31.7268 20.943C31.7268 22.087 32.0648 23.114 32.7408 24.024C33.4168 24.908 34.3528 25.61 35.5488 26.13C36.7448 26.624 38.1228 26.871 39.6828 26.871Z" fill="url(#paint1_linear_12_10)"/>
<path d="M59.844 31.278V10.647H65.382V31.278H59.844ZM62.574 6.006C61.508 6.006 60.676 5.746 60.078 5.226C59.48 4.706 59.181 3.965 59.181 3.003C59.181 2.119 59.48 1.404 60.078 0.858001C60.702 0.286 61.534 0 62.574 0C63.64 0 64.472 0.273 65.07 0.819001C65.668 1.339 65.967 2.067 65.967 3.003C65.967 3.913 65.655 4.641 65.031 5.187C64.433 5.733 63.614 6.006 62.574 6.006Z" fill="url(#paint2_linear_12_10)"/>
<path d="M72.5275 31.278V2.418H78.0655V31.278H72.5275Z" fill="url(#paint3_linear_12_10)"/>
<path d="M95.6088 31.668C92.8528 31.668 90.4088 31.213 88.2768 30.303C86.1708 29.393 84.5198 28.132 83.3238 26.52C82.1278 24.882 81.5298 23.023 81.5298 20.943C81.5298 18.837 82.1278 16.991 83.3238 15.405C84.5198 13.793 86.1708 12.532 88.2768 11.622C90.4088 10.686 92.8528 10.218 95.6088 10.218C98.3648 10.218 100.796 10.686 102.902 11.622C105.008 12.532 106.646 13.793 107.816 15.405C109.012 16.991 109.61 18.837 109.61 20.943C109.61 23.023 109.012 24.882 107.816 26.52C106.646 28.132 105.008 29.393 102.902 30.303C100.796 31.213 98.3648 31.668 95.6088 31.668ZM95.6088 26.832C97.1688 26.832 98.5858 26.585 99.8598 26.091C101.16 25.597 102.187 24.908 102.941 24.024C103.695 23.114 104.046 22.087 103.994 20.943C104.046 19.773 103.695 18.746 102.941 17.862C102.187 16.978 101.16 16.289 99.8598 15.795C98.5858 15.275 97.1688 15.015 95.6088 15.015C94.0488 15.015 92.6188 15.275 91.3188 15.795C90.0188 16.289 88.9918 16.978 88.2378 17.862C87.4838 18.72 87.1198 19.747 87.1458 20.943C87.1198 22.087 87.4838 23.114 88.2378 24.024C88.9918 24.908 90.0188 25.597 91.3188 26.091C92.6188 26.585 94.0488 26.832 95.6088 26.832Z" fill="url(#paint4_linear_12_10)"/>
<path d="M113.138 31.278V10.647H118.481L118.598 16.146L116.999 15.522C117.389 14.976 117.896 14.391 118.52 13.767C119.17 13.143 119.937 12.571 120.821 12.051C121.705 11.531 122.719 11.102 123.863 10.764C125.033 10.426 126.32 10.257 127.724 10.257C129.05 10.257 130.272 10.465 131.39 10.881C132.534 11.297 133.496 11.947 134.276 12.831C135.056 13.715 135.576 14.885 135.836 16.341L134.198 16.107L134.51 15.483C134.952 14.937 135.511 14.365 136.187 13.767C136.863 13.169 137.643 12.61 138.527 12.09C139.437 11.544 140.438 11.102 141.53 10.764C142.648 10.426 143.844 10.257 145.118 10.257C147.406 10.257 149.213 10.673 150.539 11.505C151.891 12.311 152.853 13.39 153.425 14.742C153.997 16.094 154.283 17.563 154.283 19.149V31.278H148.745V19.929C148.745 19.019 148.576 18.2 148.238 17.472C147.926 16.718 147.419 16.133 146.717 15.717C146.015 15.275 145.092 15.054 143.948 15.054C142.882 15.054 141.894 15.223 140.984 15.561C140.1 15.873 139.307 16.315 138.605 16.887C137.929 17.459 137.396 18.122 137.006 18.876C136.642 19.63 136.46 20.436 136.46 21.294V31.278H130.922V19.89C130.922 18.954 130.727 18.122 130.337 17.394C129.947 16.666 129.336 16.094 128.504 15.678C127.672 15.262 126.567 15.054 125.189 15.054C124.227 15.054 123.343 15.236 122.537 15.6C121.757 15.938 121.081 16.393 120.509 16.965C119.937 17.537 119.482 18.135 119.144 18.759C118.832 19.383 118.676 19.955 118.676 20.475V31.278H113.138Z" fill="url(#paint5_linear_12_10)"/>
<path d="M159.475 31.278V3.978H174.841C177.207 3.978 179.183 4.251 180.769 4.797C182.381 5.317 183.59 6.084 184.396 7.098C185.228 8.112 185.644 9.321 185.644 10.725C185.644 12.233 185.176 13.52 184.24 14.586C183.33 15.626 181.952 16.367 180.106 16.809L180.34 16.068C181.484 16.328 182.576 16.744 183.616 17.316C184.656 17.888 185.488 18.655 186.112 19.617C186.762 20.553 187.087 21.71 187.087 23.088C187.087 24.726 186.749 26.078 186.073 27.144C185.397 28.21 184.5 29.042 183.382 29.64C182.264 30.238 181.042 30.667 179.716 30.927C178.416 31.161 177.129 31.278 175.855 31.278H159.475ZM165.091 26.208H176.011C177.025 26.208 177.922 26.091 178.702 25.857C179.508 25.623 180.132 25.259 180.574 24.765C181.042 24.245 181.276 23.608 181.276 22.854C181.276 21.97 180.977 21.294 180.379 20.826C179.807 20.332 179.092 19.994 178.234 19.812C177.402 19.604 176.596 19.5 175.816 19.5H165.091V26.208ZM165.091 14.82H175.153C176.011 14.82 176.791 14.703 177.493 14.469C178.221 14.235 178.78 13.897 179.17 13.455C179.586 13.013 179.794 12.48 179.794 11.856C179.794 10.816 179.313 10.088 178.351 9.672C177.415 9.256 176.245 9.048 174.841 9.048H165.091V14.82Z" fill="url(#paint6_linear_12_10)"/>
<path d="M201.706 31.668C198.95 31.668 196.506 31.213 194.374 30.303C192.268 29.393 190.617 28.132 189.421 26.52C188.225 24.882 187.627 23.023 187.627 20.943C187.627 18.837 188.225 16.991 189.421 15.405C190.617 13.793 192.268 12.532 194.374 11.622C196.506 10.686 198.95 10.218 201.706 10.218C204.462 10.218 206.893 10.686 208.999 11.622C211.105 12.532 212.743 13.793 213.913 15.405C215.109 16.991 215.707 18.837 215.707 20.943C215.707 23.023 215.109 24.882 213.913 26.52C212.743 28.132 211.105 29.393 208.999 30.303C206.893 31.213 204.462 31.668 201.706 31.668ZM201.706 26.832C203.266 26.832 204.683 26.585 205.957 26.091C207.257 25.597 208.284 24.908 209.038 24.024C209.792 23.114 210.143 22.087 210.091 20.943C210.143 19.773 209.792 18.746 209.038 17.862C208.284 16.978 207.257 16.289 205.957 15.795C204.683 15.275 203.266 15.015 201.706 15.015C200.146 15.015 198.716 15.275 197.416 15.795C196.116 16.289 195.089 16.978 194.335 17.862C193.581 18.72 193.217 19.747 193.243 20.943C193.217 22.087 193.581 23.114 194.335 24.024C195.089 24.908 196.116 25.597 197.416 26.091C198.716 26.585 200.146 26.832 201.706 26.832Z" fill="url(#paint7_linear_12_10)"/>
<path d="M230.584 31.668C227.828 31.668 225.384 31.213 223.252 30.303C221.146 29.393 219.495 28.132 218.299 26.52C217.103 24.882 216.505 23.023 216.505 20.943C216.505 18.837 217.103 16.991 218.299 15.405C219.495 13.793 221.146 12.532 223.252 11.622C225.384 10.686 227.828 10.218 230.584 10.218C233.34 10.218 235.771 10.686 237.877 11.622C239.983 12.532 241.621 13.793 242.791 15.405C243.987 16.991 244.585 18.837 244.585 20.943C244.585 23.023 243.987 24.882 242.791 26.52C241.621 28.132 239.983 29.393 237.877 30.303C235.771 31.213 233.34 31.668 230.584 31.668ZM230.584 26.832C232.144 26.832 233.561 26.585 234.835 26.091C236.135 25.597 237.162 24.908 237.916 24.024C238.67 23.114 239.021 22.087 238.969 20.943C239.021 19.773 238.67 18.746 237.916 17.862C237.162 16.978 236.135 16.289 234.835 15.795C233.561 15.275 232.144 15.015 230.584 15.015C229.024 15.015 227.594 15.275 226.294 15.795C224.994 16.289 223.967 16.978 223.213 17.862C222.459 18.72 222.095 19.747 222.121 20.943C222.095 22.087 222.459 23.114 223.213 24.024C223.967 24.908 224.994 25.597 226.294 26.091C227.594 26.585 229.024 26.832 230.584 26.832Z" fill="url(#paint8_linear_12_10)"/>
<path d="M253.183 26.247L252.208 21.684L266.56 10.647H274.048L253.183 26.247ZM248.581 31.278V2.418H253.729V31.278H248.581ZM267.223 31.278L256.888 19.617L260.593 16.497L273.892 31.278H267.223Z" fill="url(#paint9_linear_12_10)"/>
<path d="M277.769 31.278V10.647H283.307V31.278H277.769ZM280.499 6.006C279.433 6.006 278.601 5.746 278.003 5.226C277.405 4.706 277.106 3.965 277.106 3.003C277.106 2.119 277.405 1.404 278.003 0.858001C278.627 0.286 279.459 0 280.499 0C281.565 0 282.397 0.273 282.995 0.819001C283.593 1.339 283.892 2.067 283.892 3.003C283.892 3.913 283.58 4.641 282.956 5.187C282.358 5.733 281.539 6.006 280.499 6.006Z" fill="url(#paint10_linear_12_10)"/>
<path d="M290.608 31.278V10.647H295.912L296.068 16.419L294.391 16.692C294.859 15.626 295.548 14.599 296.458 13.611C297.394 12.623 298.538 11.817 299.89 11.193C301.268 10.543 302.815 10.218 304.531 10.218C306.663 10.218 308.444 10.621 309.874 11.427C311.304 12.233 312.383 13.312 313.111 14.664C313.865 15.99 314.242 17.472 314.242 19.11V31.278H308.704V20.28C308.704 19.24 308.444 18.33 307.924 17.55C307.404 16.744 306.702 16.12 305.818 15.678C304.934 15.236 303.933 15.015 302.815 15.015C301.775 15.015 300.839 15.197 300.007 15.561C299.201 15.899 298.512 16.354 297.94 16.926C297.368 17.498 296.926 18.109 296.614 18.759C296.302 19.409 296.146 20.033 296.146 20.631V31.278H293.416C292.48 31.278 291.778 31.278 291.31 31.278C290.842 31.278 290.608 31.278 290.608 31.278Z" fill="url(#paint11_linear_12_10)"/>
<path d="M332.859 40.248C330.311 40.248 328.127 39.988 326.307 39.468C324.487 38.948 323.005 38.35 321.861 37.674L323.733 33.462C324.331 33.696 325.033 33.982 325.839 34.32C326.645 34.658 327.581 34.944 328.647 35.178C329.739 35.438 330.961 35.568 332.313 35.568C333.717 35.568 334.965 35.295 336.057 34.749C337.149 34.203 337.994 33.397 338.592 32.331C339.216 31.265 339.528 29.952 339.528 28.392V26.364L340.464 26.559C340.282 27.339 339.671 28.093 338.631 28.821C337.591 29.549 336.291 30.147 334.731 30.615C333.197 31.057 331.52 31.278 329.7 31.278C327.412 31.278 325.397 30.849 323.655 29.991C321.913 29.107 320.548 27.885 319.56 26.325C318.598 24.739 318.117 22.932 318.117 20.904C318.117 18.798 318.637 16.952 319.677 15.366C320.717 13.754 322.147 12.493 323.967 11.583C325.813 10.673 327.945 10.218 330.363 10.218C330.961 10.218 331.689 10.296 332.547 10.452C333.431 10.582 334.341 10.79 335.277 11.076C336.213 11.336 337.097 11.661 337.929 12.051C338.761 12.415 339.437 12.857 339.957 13.377C340.477 13.871 340.737 14.43 340.737 15.054L339.606 15.366L339.762 10.647H345.066V28.158C345.066 30.212 344.728 31.993 344.052 33.501C343.376 35.035 342.453 36.296 341.283 37.284C340.139 38.272 338.839 39.013 337.383 39.507C335.927 40.001 334.419 40.248 332.859 40.248ZM331.923 26.832C333.509 26.832 334.874 26.585 336.018 26.091C337.188 25.597 338.085 24.908 338.709 24.024C339.359 23.114 339.684 22.074 339.684 20.904C339.684 19.734 339.359 18.707 338.709 17.823C338.085 16.939 337.188 16.25 336.018 15.756C334.874 15.236 333.509 14.976 331.923 14.976C330.311 14.976 328.868 15.236 327.594 15.756C326.346 16.25 325.371 16.939 324.669 17.823C323.993 18.707 323.655 19.734 323.655 20.904C323.655 22.048 323.993 23.075 324.669 23.985C325.371 24.869 326.346 25.571 327.594 26.091C328.868 26.585 330.311 26.832 331.923 26.832Z" fill="url(#paint12_linear_12_10)"/>
<defs>
<linearGradient id="paint0_linear_12_10" x1="-3.90002" y1="16.778" x2="353.1" y2="16.778" gradientUnits="userSpaceOnUse">
<stop stop-color="#6B6B6C"/>
<stop offset="0.5" stop-color="#642183"/>
<stop offset="1" stop-color="#920027"/>
</linearGradient>
<linearGradient id="paint1_linear_12_10" x1="-3.90002" y1="16.778" x2="353.1" y2="16.778" gradientUnits="userSpaceOnUse">
<stop stop-color="#6B6B6C"/>
<stop offset="0.5" stop-color="#642183"/>
<stop offset="1" stop-color="#920027"/>
</linearGradient>
<linearGradient id="paint2_linear_12_10" x1="-3.90002" y1="16.778" x2="353.1" y2="16.778" gradientUnits="userSpaceOnUse">
<stop stop-color="#6B6B6C"/>
<stop offset="0.5" stop-color="#642183"/>
<stop offset="1" stop-color="#920027"/>
</linearGradient>
<linearGradient id="paint3_linear_12_10" x1="-3.90002" y1="16.778" x2="353.1" y2="16.778" gradientUnits="userSpaceOnUse">
<stop stop-color="#6B6B6C"/>
<stop offset="0.5" stop-color="#642183"/>
<stop offset="1" stop-color="#920027"/>
</linearGradient>
<linearGradient id="paint4_linear_12_10" x1="-3.90002" y1="16.778" x2="353.1" y2="16.778" gradientUnits="userSpaceOnUse">
<stop stop-color="#6B6B6C"/>
<stop offset="0.5" stop-color="#642183"/>
<stop offset="1" stop-color="#920027"/>
</linearGradient>
<linearGradient id="paint5_linear_12_10" x1="-3.90002" y1="16.778" x2="353.1" y2="16.778" gradientUnits="userSpaceOnUse">
<stop stop-color="#6B6B6C"/>
<stop offset="0.5" stop-color="#642183"/>
<stop offset="1" stop-color="#920027"/>
</linearGradient>
<linearGradient id="paint6_linear_12_10" x1="-3.90002" y1="16.778" x2="353.1" y2="16.778" gradientUnits="userSpaceOnUse">
<stop stop-color="#6B6B6C"/>
<stop offset="0.5" stop-color="#642183"/>
<stop offset="1" stop-color="#920027"/>
</linearGradient>
<linearGradient id="paint7_linear_12_10" x1="-3.90002" y1="16.778" x2="353.1" y2="16.778" gradientUnits="userSpaceOnUse">
<stop stop-color="#6B6B6C"/>
<stop offset="0.5" stop-color="#642183"/>
<stop offset="1" stop-color="#920027"/>
</linearGradient>
<linearGradient id="paint8_linear_12_10" x1="-3.90002" y1="16.778" x2="353.1" y2="16.778" gradientUnits="userSpaceOnUse">
<stop stop-color="#6B6B6C"/>
<stop offset="0.5" stop-color="#642183"/>
<stop offset="1" stop-color="#920027"/>
</linearGradient>
<linearGradient id="paint9_linear_12_10" x1="-3.90002" y1="16.778" x2="353.1" y2="16.778" gradientUnits="userSpaceOnUse">
<stop stop-color="#6B6B6C"/>
<stop offset="0.5" stop-color="#642183"/>
<stop offset="1" stop-color="#920027"/>
</linearGradient>
<linearGradient id="paint10_linear_12_10" x1="-3.90002" y1="16.778" x2="353.1" y2="16.778" gradientUnits="userSpaceOnUse">
<stop stop-color="#6B6B6C"/>
<stop offset="0.5" stop-color="#642183"/>
<stop offset="1" stop-color="#920027"/>
</linearGradient>
<linearGradient id="paint11_linear_12_10" x1="-3.90002" y1="16.778" x2="353.1" y2="16.778" gradientUnits="userSpaceOnUse">
<stop stop-color="#6B6B6C"/>
<stop offset="0.5" stop-color="#642183"/>
<stop offset="1" stop-color="#920027"/>
</linearGradient>
<linearGradient id="paint12_linear_12_10" x1="-3.90002" y1="16.778" x2="353.1" y2="16.778" gradientUnits="userSpaceOnUse">
<stop stop-color="#6B6B6C"/>
<stop offset="0.5" stop-color="#642183"/>
<stop offset="1" stop-color="#920027"/>
</linearGradient>
</defs>
</svg>
